<svg width="1200" height="520" viewBox="0 0 1200 520" fill="none" xmlns="http://www.w3.org/2000/svg" role="img" aria-label="Agriculture supply dashboard">
  <rect width="1200" height="520" rx="24" fill="#F4FAF3"/>
  <rect x="28" y="28" width="1144" height="464" rx="18" fill="#FFFFFF" stroke="#DCEBDA"/>
  <text x="64" y="80" fill="#214333" font-size="26" font-weight="700" font-family="Inter, Arial">Agri Supply Dashboard</text>

  <rect x="64" y="118" width="360" height="342" rx="12" fill="#F7FCF6" stroke="#E2EFE0"/>
  <text x="84" y="150" fill="#5F7F6D" font-size="12" font-family="Inter, Arial">INVENTORY BY CATEGORY</text>
  <rect x="84" y="174" width="320" height="56" rx="10" fill="#EAF5E8"/>
  <rect x="84" y="238" width="320" height="56" rx="10" fill="#EAF5E8"/>
  <rect x="84" y="302" width="320" height="56" rx="10" fill="#EAF5E8"/>
  <rect x="84" y="366" width="320" height="56" rx="10" fill="#EAF5E8"/>

  <rect x="444" y="118" width="340" height="342" rx="12" fill="#F7FCF6" stroke="#E2EFE0"/>
  <text x="464" y="150" fill="#5F7F6D" font-size="12" font-family="Inter, Arial">ORDER DISPATCH RATE</text>
  <line x1="464" y1="414" x2="764" y2="414" stroke="#DDEBDD"/>
  <rect x="486" y="336" width="40" height="78" rx="6" fill="#9ECF91"/>
  <rect x="542" y="312" width="40" height="102" rx="6" fill="#7DBC6D"/>
  <rect x="598" y="288" width="40" height="126" rx="6" fill="#4E9B4E"/>
  <rect x="654" y="250" width="40" height="164" rx="6" fill="#2F7C3D"/>

  <rect x="804" y="118" width="332" height="342" rx="12" fill="#F7FCF6" stroke="#E2EFE0"/>
  <text x="824" y="150" fill="#5F7F6D" font-size="12" font-family="Inter, Arial">ROUTE AND DELIVERY TRACKER</text>
  <rect x="824" y="174" width="292" height="248" rx="10" fill="#EAF5E8"/>
  <polyline points="846,392 886,350 918,360 956,320 988,332 1026,292 1086,266" fill="none" stroke="#2F7C3D" stroke-width="4" stroke-linecap="round"/>
</svg>
