<svg width="1200" height="520" viewBox="0 0 1200 520" fill="none" xmlns="http://www.w3.org/2000/svg" role="img" aria-label="Schools operation dashboard screenshot">
  <rect width="1200" height="520" rx="24" fill="#F3F8FD"/>
  <rect x="28" y="28" width="1144" height="464" rx="18" fill="#FFFFFF" stroke="#D8E5F1"/>
  <text x="64" y="80" fill="#12324B" font-size="26" font-weight="700" font-family="Inter, Arial">Schools Dashboard</text>
  <rect x="64" y="104" width="1072" height="2" fill="#E3EDF7"/>

  <rect x="64" y="126" width="300" height="334" rx="12" fill="#F7FBFF" stroke="#E3EDF8"/>
  <text x="84" y="156" fill="#5D7892" font-size="12" font-family="Inter, Arial">ATTENDANCE HEATMAP</text>
  <rect x="84" y="172" width="260" height="268" rx="10" fill="#EAF3FC"/>
  <g opacity="0.75">
    <rect x="96" y="184" width="18" height="18" rx="4" fill="#BFE3F2"/><rect x="120" y="184" width="18" height="18" rx="4" fill="#A8D8EB"/><rect x="144" y="184" width="18" height="18" rx="4" fill="#7BC3DE"/>
    <rect x="96" y="208" width="18" height="18" rx="4" fill="#9FD3E8"/><rect x="120" y="208" width="18" height="18" rx="4" fill="#6DBDDC"/><rect x="144" y="208" width="18" height="18" rx="4" fill="#46A8D0"/>
  </g>

  <rect x="384" y="126" width="360" height="160" rx="12" fill="#F7FBFF" stroke="#E3EDF8"/>
  <text x="404" y="156" fill="#5D7892" font-size="12" font-family="Inter, Arial">FEE COLLECTION</text>
  <polyline points="404,258 446,244 488,236 530,224 572,206 614,194 656,174 698,162 730,146" fill="none" stroke="#1296BE" stroke-width="4" stroke-linecap="round"/>

  <rect x="384" y="300" width="360" height="160" rx="12" fill="#F7FBFF" stroke="#E3EDF8"/>
  <text x="404" y="330" fill="#5D7892" font-size="12" font-family="Inter, Arial">TRANSPORT TRACKING</text>
  <rect x="404" y="346" width="320" height="24" rx="12" fill="#EAF3FC"/>
  <rect x="404" y="378" width="300" height="24" rx="12" fill="#EAF3FC"/>
  <rect x="404" y="410" width="282" height="24" rx="12" fill="#EAF3FC"/>

  <rect x="764" y="126" width="372" height="334" rx="12" fill="#F7FBFF" stroke="#E3EDF8"/>
  <text x="784" y="156" fill="#5D7892" font-size="12" font-family="Inter, Arial">PARENT COMMUNICATION LOG</text>
  <rect x="784" y="172" width="332" height="48" rx="8" fill="#EAF3FC"/>
  <rect x="784" y="228" width="332" height="48" rx="8" fill="#EAF3FC"/>
  <rect x="784" y="284" width="332" height="48" rx="8" fill="#EAF3FC"/>
  <rect x="784" y="340" width="332" height="48" rx="8" fill="#EAF3FC"/>
</svg>
