<svg width="1200" height="520" viewBox="0 0 1200 520" fill="none" xmlns="http://www.w3.org/2000/svg" role="img" aria-label="Clinic operations control panel">
  <rect width="1200" height="520" rx="24" fill="#F4FAF8"/>
  <rect x="28" y="28" width="1144" height="464" rx="18" fill="#FFFFFF" stroke="#D8E9E3"/>
  <text x="64" y="80" fill="#1B3B35" font-size="26" font-weight="700" font-family="Inter, Arial">Clinic Control Panel</text>

  <rect x="64" y="118" width="520" height="342" rx="12" fill="#F7FCFA" stroke="#E0EFE9"/>
  <text x="84" y="150" fill="#5E7F77" font-size="12" font-family="Inter, Arial">DOCTOR SCHEDULE</text>
  <line x1="104" y1="172" x2="104" y2="430" stroke="#BFD9CF" stroke-width="2"/>
  <circle cx="104" cy="206" r="6" fill="#2A9D8F"/><text x="124" y="210" fill="#2A4B45" font-size="12" font-family="Inter, Arial">09:00 Cardio review</text>
  <circle cx="104" cy="254" r="6" fill="#2A9D8F"/><text x="124" y="258" fill="#2A4B45" font-size="12" font-family="Inter, Arial">09:40 Follow-up consult</text>
  <circle cx="104" cy="302" r="6" fill="#D97706"/><text x="124" y="306" fill="#2A4B45" font-size="12" font-family="Inter, Arial">10:20 Late arrival flagged</text>
  <circle cx="104" cy="350" r="6" fill="#2A9D8F"/><text x="124" y="354" fill="#2A4B45" font-size="12" font-family="Inter, Arial">11:05 Billing completed</text>

  <rect x="604" y="118" width="532" height="160" rx="12" fill="#F7FCFA" stroke="#E0EFE9"/>
  <text x="624" y="150" fill="#5E7F77" font-size="12" font-family="Inter, Arial">PATIENT WAIT TIME</text>
  <rect x="624" y="166" width="492" height="92" rx="10" fill="#EAF6F2"/>
  <polyline points="636,238 694,226 752,214 810,196 868,182 926,170 984,156 1100,138" fill="none" stroke="#2A9D8F" stroke-width="4" stroke-linecap="round"/>

  <rect x="604" y="300" width="532" height="160" rx="12" fill="#F7FCFA" stroke="#E0EFE9"/>
  <text x="624" y="332" fill="#5E7F77" font-size="12" font-family="Inter, Arial">REMINDER STATUS</text>
  <rect x="624" y="348" width="492" height="28" rx="14" fill="#EAF6F2"/>
  <rect x="624" y="388" width="492" height="28" rx="14" fill="#EAF6F2"/>
</svg>
